<?xml version="1.0" standalone="no"?>
<!DOCTYPE svg PUBLIC "-//W3C//DTD SVG 20010904//EN"
 "http://www.w3.org/TR/2001/REC-SVG-20010904/DTD/svg10.dtd">
<svg version="1.0" xmlns="http://www.w3.org/2000/svg"
 width="128.000000pt" height="128.000000pt" viewBox="0 0 128.000000 128.000000"
 preserveAspectRatio="xMidYMid meet">

<g transform="translate(0.000000,128.000000) scale(0.100000,-0.100000)"
fill="#000000" stroke="none">
<path d="M499 922 c-34 -17 -65 -44 -84 -71 -28 -39 -30 -50 -33 -142 -3 -70
0 -99 8 -99 6 0 17 -14 24 -32 13 -30 14 -28 21 62 7 86 10 95 37 120 16 15
47 33 69 39 39 12 41 11 79 -23 45 -41 77 -59 89 -51 5 3 19 -7 30 -21 17 -22
21 -23 21 -9 0 17 1 17 21 -1 29 -26 37 -44 45 -100 7 -54 14 -71 14 -34 0 13
8 32 18 43 12 14 16 34 15 74 -4 119 -56 200 -143 223 -22 6 -40 14 -40 19 0
14 -50 31 -94 31 -28 0 -63 -10 -97 -28z"/>
<path d="M478 199 c-10 -5 -51 -16 -91 -24 -82 -16 -127 -31 -127 -43 0 -13
101 -71 161 -91 60 -22 187 -46 195 -38 3 2 -16 50 -42 106 -48 102 -58 112
-96 90z"/>
<path d="M706 162 c-14 -28 -37 -76 -51 -108 l-25 -57 65 7 c87 9 208 48 270
87 47 30 48 32 30 45 -11 8 -35 18 -55 23 -19 5 -66 17 -105 26 -38 9 -78 19
-87 22 -12 4 -23 -8 -42 -45z"/>
</g>
</svg>
