<?xml version="1.0" standalone="no"?>
<!DOCTYPE svg PUBLIC "-//W3C//DTD SVG 20010904//EN"
 "http://www.w3.org/TR/2001/REC-SVG-20010904/DTD/svg10.dtd">
<svg version="1.0" xmlns="http://www.w3.org/2000/svg"
 width="128.000000pt" height="128.000000pt" viewBox="0 0 128.000000 128.000000"
 preserveAspectRatio="xMidYMid meet">

<g transform="translate(0.000000,128.000000) scale(0.100000,-0.100000)"
fill="#000000" stroke="none">
<path d="M574 1186 c-23 -7 -52 -21 -65 -30 -13 -9 -33 -16 -45 -16 -40 0
-100 -55 -133 -122 -51 -104 -64 -186 -65 -423 -1 -170 3 -222 17 -273 9 -35
17 -65 17 -67 0 -3 -17 -9 -38 -15 -22 -5 -46 -18 -56 -29 -16 -18 -15 -20 30
-60 95 -84 275 -151 404 -151 125 0 309 67 395 144 l40 36 -30 25 c-16 14 -49
30 -73 37 l-43 11 8 56 c4 31 8 148 7 261 -1 218 -15 329 -56 437 -51 138
-193 219 -314 179z m-30 -230 c61 -46 113 -73 196 -101 76 -26 75 -24 86 -202
l7 -112 -47 -47 c-41 -43 -46 -52 -46 -93 0 -70 8 -88 43 -98 65 -18 40 -65
-106 -203 l-58 -54 -96 97 c-53 53 -98 97 -100 97 -8 0 -33 29 -33 38 0 5 24
15 53 23 l52 14 3 68 3 68 -46 51 c-26 29 -53 65 -61 80 -21 40 -20 235 1 306
18 59 71 128 89 114 6 -5 33 -26 60 -46z"/>
</g>
</svg>
